<svg width="19" height="18" viewBox="0 0 19 18" fill="none" xmlns="http://www.w3.org/2000/svg">
<path d="M15.9916 2.58284C14.2816 0.929844 12.0316 -0.00390625 9.63531 -0.00390625C2.75781 -0.00390625 -1.56069 7.44734 1.87356 13.3746L0.601562 17.9961L5.35281 16.7571C7.42281 17.8753 9.11856 17.7763 9.63981 17.8423C17.6146 17.8423 21.5843 8.19434 15.9803 2.61209L15.9916 2.58284Z" fill="#ECEFF1"/>
<path d="M9.65197 16.3097L9.64747 16.309H9.63547C7.24897 16.309 5.72422 15.1787 5.57422 15.1135L2.76172 15.8447L3.51547 13.111L3.33622 12.8297C2.59372 11.6477 2.19922 10.2865 2.19922 8.88475C2.19922 2.29 10.258 -1.00775 14.9215 3.6535C19.5737 8.266 16.3075 16.3097 9.65197 16.3097Z" fill="#EF3E2C"/>
<path d="M13.73 10.7267L13.7232 10.783C13.4975 10.6705 12.398 10.1327 12.1932 10.0585C11.7335 9.88822 11.8632 10.0315 10.9805 11.0425C10.8492 11.1887 10.7187 11.2 10.496 11.0987C10.271 10.9862 9.54871 10.75 8.69371 9.98497C8.02771 9.38872 7.58071 8.65747 7.44871 8.43247C7.22896 8.05297 7.68871 7.99897 8.10721 7.20697C8.18221 7.04947 8.14396 6.92572 8.08846 6.81397C8.03221 6.70147 7.58446 5.59896 7.39696 5.15946C7.21696 4.72146 7.03171 4.77697 6.89296 4.77697C6.46096 4.73947 6.14521 4.74546 5.86696 5.03496C4.65646 6.36547 4.96171 7.73796 5.99746 9.19746C8.03296 11.8615 9.11746 12.352 11.1005 13.033C11.636 13.2032 12.1242 13.1792 12.5105 13.1237C12.941 13.0555 13.8357 12.583 14.0225 12.0542C14.2137 11.5255 14.2137 11.0867 14.1575 10.9855C14.102 10.8842 13.955 10.828 13.73 10.7267Z" fill="#FAFAFA"/>
</svg>
