<svg width="122" height="30" viewBox="0 0 122 30" fill="none" xmlns="http://www.w3.org/2000/svg">
<path d="M9.03048 9.01716C8.74953 10.6426 8.48865 12.1377 8.21774 13.6327C7.42841 18.1279 6.63239 22.6231 5.82968 27.1183C5.72934 27.6802 5.64907 28.2521 5.52866 28.814C5.52866 28.9444 5.33802 29.1351 5.22765 29.1351C3.52189 29.1351 1.8061 29.1351 0 29.1351C1.65559 19.7333 3.31118 10.3717 4.9467 0.980029H5.42832C8.38832 0.980029 11.3583 0.980029 14.3183 0.980029C15.1865 0.934858 16.0519 1.10986 16.8343 1.48877C17.6167 1.86768 18.2906 2.43821 18.7934 3.14734C22.0444 7.55556 25.292 11.9671 28.5363 16.382L31.7472 20.7568L32.0181 21.0478C32.1385 20.4156 32.2489 19.8738 32.3492 19.3219C33.279 14.0241 34.2088 8.72283 35.1386 3.41826C35.259 2.71589 35.3794 2.00348 35.5299 1.29108C35.5299 1.16064 35.7406 0.959961 35.8611 0.959961C37.5568 0.959961 39.2525 0.959961 40.9482 0.959961C40.9482 0.959961 41.0084 0.959961 41.0586 1.02016C40.8178 2.44497 40.577 3.87982 40.3261 5.31466L38.821 13.7832C37.9581 18.6798 37.0651 23.5863 36.2323 28.4929C36.132 29.0648 35.9313 29.1652 35.4196 29.1652C32.5499 29.1652 29.6802 29.105 26.8205 29.1652C25.9122 29.206 25.0086 29.0124 24.1967 28.603C23.3848 28.1935 22.692 27.582 22.1849 26.8273C20.3253 24.2987 18.4657 21.7568 16.6061 19.2015L9.40174 9.41851C9.31143 9.29811 9.21109 9.19777 9.03048 8.98706" fill="#DD0B16"/>
<path d="M76.7498 29.1448H76.1879C73.278 29.1448 70.3582 29.1448 67.4484 29.1448C66.5798 29.183 65.7157 29.0007 64.9366 28.6147C64.1576 28.2286 63.4891 27.6516 62.9933 26.9374L58.8493 21.3284L49.9694 9.28778C49.9201 9.22481 49.8765 9.15766 49.8389 9.08711H49.7185C49.558 9.97009 49.3974 10.8531 49.2469 11.7461C48.4777 15.9269 47.7251 20.0842 46.9893 24.2182C46.7184 25.7233 46.4575 27.2283 46.1766 28.7535C46.1766 28.8839 45.996 29.0946 45.8956 29.0946C44.1798 29.0946 42.4741 29.0946 40.668 29.0946C40.7583 28.5227 40.8385 27.9909 40.9289 27.4692C41.6914 23.2282 42.4473 18.9705 43.1965 14.696C43.9323 10.5286 44.6681 6.36458 45.404 2.20387V2.14367C45.6147 0.949638 45.6147 0.939604 46.8087 0.939604C49.4978 0.939604 52.1969 0.939604 54.886 0.939604C55.7863 0.894756 56.6831 1.08262 57.4898 1.48508C58.2965 1.88754 58.9859 2.49102 59.4915 3.23736L64.98 10.7026L72.2546 20.5659C72.365 20.7164 72.4753 20.8669 72.666 21.1077C73.8801 14.3248 75.054 7.6623 76.1879 0.979739H81.6764C80.0175 10.3447 78.3452 19.733 76.6595 29.1448" fill="#DD0B16"/>
<path d="M116.724 25.8839C116.624 26.8873 116.514 27.7602 116.443 28.6633C116.443 29.0345 116.193 29.0947 115.902 29.1248C114.537 29.2753 113.162 29.466 111.798 29.5864C108.033 29.939 104.25 30.0664 100.469 29.9677C97.6329 29.9611 94.8095 29.5833 92.0711 28.8439C89.6786 28.2578 87.5031 27.0012 85.7999 25.2216C84.402 23.6322 83.5325 21.6476 83.3115 19.5425C82.9303 15.8576 83.7825 12.1503 85.7345 9.00171C87.6865 5.85311 90.6279 3.44112 94.0979 2.14375C97.1806 0.987296 100.422 0.310502 103.71 0.136973C107.421 -0.0770876 111.142 -0.0402129 114.848 0.247345C116.985 0.407887 119.112 0.668768 121.34 0.899547C121.059 2.04341 120.808 3.08693 120.567 4.11039C119.132 3.87961 117.768 3.60869 116.393 3.44815C111.878 2.95649 107.413 3.06686 103.199 5.01343C101.233 5.88563 99.516 7.23579 98.2051 8.94098C96.8942 10.6462 96.0308 12.6522 95.6933 14.7764C95.2742 16.6129 95.3294 18.5259 95.8539 20.3352C96.2432 21.5637 96.9182 22.6825 97.8234 23.5999C98.7285 24.5173 99.8382 25.2071 101.061 25.613C103.439 26.457 105.955 26.8451 108.476 26.7568C111.135 26.7286 113.784 26.4328 116.383 25.8738C116.497 25.8656 116.611 25.8656 116.724 25.8738" fill="#DD0B16"/>
</svg>
