<svg width="16" height="13" viewBox="0 0 16 13" fill="none" xmlns="http://www.w3.org/2000/svg">
<path fill-rule="evenodd" clip-rule="evenodd" d="M0.935547 2.5C0.935547 1.39543 1.83098 0.5 2.93555 0.5H13.6022C14.7068 0.5 15.6022 1.39543 15.6022 2.5V10.5C15.6022 11.6046 14.7068 12.5 13.6022 12.5H2.93555C1.83098 12.5 0.935547 11.6046 0.935547 10.5V2.5ZM2.93555 1.83333C2.56736 1.83333 2.26888 2.13181 2.26888 2.5V3.45587L7.92588 6.85007C8.137 6.97675 8.40076 6.97675 8.61188 6.85007L14.2689 3.45587V2.5C14.2689 2.13181 13.9704 1.83333 13.6022 1.83333H2.93555ZM14.2689 5.01079L9.29787 7.9934C8.66451 8.37342 7.87325 8.37342 7.23989 7.9934L2.26888 5.01079V10.5C2.26888 10.8682 2.56736 11.1667 2.93555 11.1667H13.6022C13.9704 11.1667 14.2689 10.8682 14.2689 10.5V5.01079Z" fill="#EF3E2C"/>
</svg>
