<svg width="19" height="18" viewBox="0 0 19 18" fill="none" xmlns="http://www.w3.org/2000/svg">
<path fill-rule="evenodd" clip-rule="evenodd" d="M14.5976 15.2082C13.12 16.4174 11.2312 17.1428 9.17299 17.1428C4.43912 17.1428 0.601562 13.3053 0.601562 8.5714C0.601562 3.83755 4.43912 0 9.17299 0C13.9069 0 17.7444 3.83755 17.7444 8.5714C17.7444 10.6296 17.0189 12.5184 15.8098 13.996L18.3505 16.5368C18.6852 16.8715 18.6852 17.4142 18.3505 17.749C18.0158 18.0837 17.4731 18.0837 17.1383 17.749L14.5976 15.2082ZM16.0301 8.5714C16.0301 12.3585 12.9601 15.4285 9.17299 15.4285C5.38589 15.4285 2.31585 12.3585 2.31585 8.5714C2.31585 4.78432 5.38589 1.71428 9.17299 1.71428C12.9601 1.71428 16.0301 4.78432 16.0301 8.5714Z" fill="#EF3E2C"/>
</svg>
