<svg width="19" height="18" viewBox="0 0 19 18" fill="none" xmlns="http://www.w3.org/2000/svg">
<path d="M11.4016 1.8C11.4016 2.79411 10.5957 3.6 9.60156 3.6C8.60745 3.6 7.80156 2.79411 7.80156 1.8C7.80156 0.805887 8.60745 0 9.60156 0C10.5957 0 11.4016 0.805887 11.4016 1.8Z" fill="#EF3E2C"/>
<path d="M11.4016 9C11.4016 9.99411 10.5957 10.8 9.60156 10.8C8.60745 10.8 7.80156 9.99411 7.80156 9C7.80156 8.00589 8.60745 7.2 9.60156 7.2C10.5957 7.2 11.4016 8.00589 11.4016 9Z" fill="#EF3E2C"/>
<path d="M9.60156 18C10.5957 18 11.4016 17.1941 11.4016 16.2C11.4016 15.2059 10.5957 14.4 9.60156 14.4C8.60745 14.4 7.80156 15.2059 7.80156 16.2C7.80156 17.1941 8.60745 18 9.60156 18Z" fill="#EF3E2C"/>
<path d="M4.20156 9C4.20156 9.99411 3.39567 10.8 2.40156 10.8C1.40745 10.8 0.601562 9.99411 0.601562 9C0.601562 8.00589 1.40745 7.2 2.40156 7.2C3.39567 7.2 4.20156 8.00589 4.20156 9Z" fill="#EF3E2C"/>
<path d="M2.40156 3.6C3.39567 3.6 4.20156 2.79411 4.20156 1.8C4.20156 0.805887 3.39567 0 2.40156 0C1.40745 0 0.601562 0.805887 0.601562 1.8C0.601562 2.79411 1.40745 3.6 2.40156 3.6Z" fill="#EF3E2C"/>
<path d="M4.20156 16.2C4.20156 17.1941 3.39567 18 2.40156 18C1.40745 18 0.601562 17.1941 0.601562 16.2C0.601562 15.2059 1.40745 14.4 2.40156 14.4C3.39567 14.4 4.20156 15.2059 4.20156 16.2Z" fill="#EF3E2C"/>
<path d="M16.8016 10.8C17.7957 10.8 18.6016 9.99411 18.6016 9C18.6016 8.00589 17.7957 7.2 16.8016 7.2C15.8075 7.2 15.0016 8.00589 15.0016 9C15.0016 9.99411 15.8075 10.8 16.8016 10.8Z" fill="#EF3E2C"/>
<path d="M18.6016 1.8C18.6016 2.79411 17.7957 3.6 16.8016 3.6C15.8075 3.6 15.0016 2.79411 15.0016 1.8C15.0016 0.805887 15.8075 0 16.8016 0C17.7957 0 18.6016 0.805887 18.6016 1.8Z" fill="#EF3E2C"/>
<path d="M16.8016 18C17.7957 18 18.6016 17.1941 18.6016 16.2C18.6016 15.2059 17.7957 14.4 16.8016 14.4C15.8075 14.4 15.0016 15.2059 15.0016 16.2C15.0016 17.1941 15.8075 18 16.8016 18Z" fill="#EF3E2C"/>
</svg>
